<?xml version="1.0" encoding="utf-8"?>
<!-- Generator: Adobe Illustrator 15.1.0, SVG Export Plug-In . SVG Version: 6.00 Build 0)  -->
<!DOCTYPE svg PUBLIC "-//W3C//DTD SVG 1.1//EN" "http://www.w3.org/Graphics/SVG/1.1/DTD/svg11.dtd">
<svg version="1.1" id="Calque_1" xmlns="http://www.w3.org/2000/svg" xmlns:xlink="http://www.w3.org/1999/xlink" x="0px" y="0px"
	 width="279px" height="205px" viewBox="0 0 279 205" enable-background="new 0 0 279 205" xml:space="preserve">
<path fill="#4B7CAD" d="M114.04,32.06c14.03-11.02,32.03-17.32,49.95-16.16c13.88,0.56,27.5,5.29,38.869,13.25
	c21.041,14.33,33.49,40.17,31.69,65.56c14.79,6.23,26.29,19.97,29.24,35.819c1.899,10.421,0.94,21.671-4.22,31.07
	c-7.721,16.061-24.62,27.49-42.561,27.76c-21.21,0.041-42.42,0.011-63.63,0.011c0.12-16.2-0.021-32.399,0.06-48.601
	c10.23-0.049,20.451-0.01,30.681-0.01c1.94,0,4.03-0.17,5.54-1.539c1.39-2.16-0.51-4.4-1.82-6.041
	c-13.949-16.729-28-33.37-41.92-50.13c-1.67-2.02-3.88-3.98-6.68-3.96c-2.93-0.04-5.24,2.04-6.98,4.17
	c-12.96,15.39-25.77,30.89-38.75,46.259c-1.99,2.4-4.42,4.65-5.41,7.69c-0.42,2.54,2.71,3.67,4.75,3.54
	c10.69,0.029,21.39-0.029,32.09,0.01c-0.09,16.211,0.09,32.41-0.08,48.61c-14.63,0.01-29.25,0-43.87,0.01
	c-8.53-0.06-17.14,0.38-25.58-1.11c-21.33-4.229-38.92-23.359-40.39-45.209c-1.83-18.771,8.16-37.82,24.35-47.351
	c-1.6-6.9-1.97-14.27,0.36-21.05c4.19-12.91,16.66-22.64,30.26-23.34c8.28-0.84,16.57,2.01,23.14,6.99
	C98.32,48.32,105.19,39.1,114.04,32.06z"/>
</svg>
